<svg xmlns="http://www.w3.org/2000/svg"  width="648px" height="250px" viewBox="0 0 155.85 42.58">
  <defs>
    <style>
      .a {
        fill: #111a44;
      }
    </style>
  </defs>
  <g>
    <g>
      <polygon class="a" points="150.84 34.44 149.68 34.44 149.68 34.31 152.16 34.31 152.16 34.44 151 34.44 151 37.32 150.84 37.32 150.84 34.44 150.84 34.44"></polygon>
      <polygon class="a" points="155.69 34.48 154.36 37.32 154.3 37.32 152.97 34.48 152.97 37.32 152.81 37.32 152.81 34.31 153.07 34.31 154.33 37 155.59 34.31 155.85 34.31 155.85 37.32 155.69 37.32 155.69 34.48"></polygon>
    </g>
    <g>
      <path class="a" d="M47.74,23.2a7.72,7.72,0,0,0,8,8.09,14.39,14.39,0,0,0,7-1.89v2.26a16.67,16.67,0,0,1-7.23,1.65C50.35,33.31,45,29.9,45,23.2c0-6.29,4.52-9.74,9.88-9.74s9.41,3.29,9.41,9.74Zm.17-1.93H61.45a6.63,6.63,0,0,0-6.7-5.79A6.8,6.8,0,0,0,47.91,21.27Z" transform="translate(0 -0.11)"></path>
      <path class="a" d="M69.73,23.37c0-6.37,5.35-9.91,10.71-9.91S91,17,91,23.32s-5.31,10-10.67,10S69.73,29.73,69.73,23.37Zm10.62,7.92a7.76,7.76,0,0,0,8-7.92,7.95,7.95,0,0,0-15.89,0A7.72,7.72,0,0,0,80.35,31.29Z" transform="translate(0 -0.11)"></path>
      <path class="a" d="M101.91,23.53c-3-1.44-5.66-2.92-5.27-6.08.31-2.42,2.14-4,5.93-4a11.68,11.68,0,0,1,5.79,1.4l-1.7,1.25a9.22,9.22,0,0,0-3.31-.63c-2.09,0-3.75.37-4,2.09-.34,2.3,2.4,3.29,4.71,4.36,3.57,1.64,5.53,2.87,5.53,5.87s-2.18,5.51-7.06,5.51a13,13,0,0,1-6.62-1.73l1.7-1.26a11.05,11.05,0,0,0,4.58,1c3.65,0,4.87-1.76,4.87-3.49C107.05,25.79,105.4,25.17,101.91,23.53Z" transform="translate(0 -0.11)"></path>
      <path class="a" d="M122,32.9h-2.62V15.81H115.2V13.87H122v19ZM120.61,5.32a1.91,1.91,0,0,1,1.91,1.81,1.92,1.92,0,0,1-3.83,0A1.91,1.91,0,0,1,120.61,5.32Z" transform="translate(0 -0.11)"></path>
      <path class="a" d="M129.34,23.37c0-6.37,5.36-9.91,10.72-9.91s10.58,3.54,10.58,9.86-5.31,10-10.67,10S129.34,29.73,129.34,23.37ZM140,31.29a7.76,7.76,0,0,0,8-7.92,8,8,0,0,0-15.9,0A7.73,7.73,0,0,0,140,31.29Z" transform="translate(0 -0.11)"></path>
    </g>
    <path class="a" d="M25,13.81,14.65.11,4.35,13.81,0,34.1l14.65,8.59L29.3,34.1ZM2.37,33.09,5.68,17.67,13.14,39.4ZM6.69,14.17l8-10.58,8,10.58-8,23.16Zm16.94,3.5,3.3,15.42L16.16,39.4Z" transform="translate(0 -0.11)"></path>
  </g>
</svg>