<svg id="Ebene_1" data-name="Ebene 1" xmlns="http://www.w3.org/2000/svg" viewBox="0 0 880 280"><defs><style>.cls-1{isolation:isolate;}</style></defs><title>AH_Grafiken_</title><rect x="154.18" y="138.61" width="36.47" height="2.78"/><polygon points="189.03 145.54 198.63 140 189.03 134.46 189.03 145.54"/><rect x="331.96" y="138.61" width="36.47" height="2.78"/><polygon points="366.81 145.54 376.41 140 366.81 134.46 366.81 145.54"/><rect x="502.59" y="105.12" width="51.08" height="2.78" transform="translate(60.52 374.11) rotate(-41.18)"/><polygon points="549.78 94.93 553.35 84.44 542.49 86.59 549.78 94.93"/><rect x="526.74" y="147.94" width="2.78" height="51.08" transform="translate(49.79 456.7) rotate(-48.81)"/><polygon points="542.49 193.41 553.35 195.56 549.78 185.07 542.49 193.41"/><path d="M133.35,185.83H41.68V94.17h91.67Zm-88.89-2.77h86.11V96.94H44.46Z"/><g class="cls-1"><path d="M85.94,131.55h3.78l5.66,16H91.75l-1-3.28H84.81l-1.08,3.28h-3.5Zm-.22,9.95h4.09l-2-6.29Z"/></g><path d="M311.13,185.83H219.46V94.17h91.67Zm-88.89-2.77h86.11V96.94H222.24Z"/><g class="cls-1"><path d="M270.66,133.25a4.08,4.08,0,0,1,.74,2.44,3.58,3.58,0,0,1-.74,2.36,3.8,3.8,0,0,1-1.22.91,3.65,3.65,0,0,1,1.85,1.41,4.31,4.31,0,0,1,.62,2.35,4.75,4.75,0,0,1-.71,2.55,4.54,4.54,0,0,1-1.14,1.25,4.49,4.49,0,0,1-1.8.81,11.5,11.5,0,0,1-2.26.21h-7.21v-16h7.73C268.47,131.58,269.85,132.15,270.66,133.25ZM262,134.33v3.52h3.89a3.25,3.25,0,0,0,1.69-.39,1.52,1.52,0,0,0,.65-1.41,1.43,1.43,0,0,0-.86-1.47,5.88,5.88,0,0,0-1.89-.25Zm0,6.17v4.27h3.88a3.7,3.7,0,0,0,1.62-.29,2,2,0,0,0,1-2,1.73,1.73,0,0,0-1-1.72,4.2,4.2,0,0,0-1.6-.27Z"/></g><path d="M488.08,185.83H396.41V94.17h91.67Zm-88.89-2.77H485.3V96.94H399.19Z"/><g class="cls-1"><path d="M437.21,133.22a6.58,6.58,0,0,1,4.92-2q4,0,5.84,2.64a5.77,5.77,0,0,1,1.09,3h-3.34a4.55,4.55,0,0,0-.82-1.74,3.3,3.3,0,0,0-2.64-1,3.26,3.26,0,0,0-2.82,1.47,7.16,7.16,0,0,0-1,4.16,6.32,6.32,0,0,0,1.08,4,3.4,3.4,0,0,0,2.77,1.34,3.11,3.11,0,0,0,2.62-1.15,5.09,5.09,0,0,0,.83-1.85H449a7.21,7.21,0,0,1-2.2,4.25,6.38,6.38,0,0,1-4.52,1.64,6.79,6.79,0,0,1-5.37-2.22,10.5,10.5,0,0,1,.27-12.55Z"/></g><path d="M665.85,130.28H574.19V38.61h91.66ZM577,127.5h86.11V41.39H577Z"/><g class="cls-1"><path d="M622.83,76.34a5.31,5.31,0,0,1,2.73,2A7.09,7.09,0,0,1,626.7,81a12.59,12.59,0,0,1,.3,2.65,10.53,10.53,0,0,1-1.28,5.4,5.78,5.78,0,0,1-5.36,3h-6.9V76h6.9A8.47,8.47,0,0,1,622.83,76.34Zm-6.12,2.43V89.21h3.08a3.35,3.35,0,0,0,3.31-2.33,8.25,8.25,0,0,0,.51-3,7.5,7.5,0,0,0-.77-3.75c-.51-.87-1.53-1.31-3.05-1.31Z"/></g><path d="M665.85,241.39H574.19V149.72h91.66ZM577,238.61h86.11V152.5H577Z"/><g class="cls-1"><path d="M625.9,189.94h-8.46v3.39h7.77v2.78h-7.77v4.11h8.85v2.88H614.17v-16H625.9Z"/></g></svg>