<svg id="Ebene_1" data-name="Ebene 1" xmlns="http://www.w3.org/2000/svg" viewBox="0 0 880 280"><defs><style>.cls-1{isolation:isolate;}.cls-2{fill:#b40000;}</style></defs><title>AH_Grafiken_</title><rect x="152.08" y="138.61" width="36.47" height="2.78"/><polygon points="186.93 145.54 196.53 140 186.93 134.46 186.93 145.54"/><rect x="329.86" y="138.61" width="36.47" height="2.78"/><polygon points="364.71 145.54 374.3 140 364.71 134.46 364.71 145.54"/><rect x="500.49" y="105.12" width="51.08" height="2.78" transform="translate(60 372.73) rotate(-41.18)"/><polygon points="547.68 94.93 551.25 84.44 540.38 86.59 547.68 94.93"/><rect x="524.64" y="147.94" width="2.78" height="51.08" transform="translate(49.07 455.12) rotate(-48.81)"/><polygon points="540.38 193.41 551.25 195.56 547.68 185.07 540.38 193.41"/><path d="M131.25,185.83H39.58V94.17h91.67Zm-88.89-2.77h86.11V96.94H42.36Z"/><g class="cls-1"><path d="M83.83,131.55h3.79l5.65,16H89.65l-1.05-3.28H82.71l-1.09,3.28H78.13Zm-.22,9.95h4.1l-2-6.29Z"/></g><path d="M309,185.83H217.36V94.17H309Zm-88.89-2.77h86.11V96.94H220.14Z"/><g class="cls-1"><path d="M268.56,133.25a4.07,4.07,0,0,1,.73,2.44,3.53,3.53,0,0,1-.74,2.36,3.7,3.7,0,0,1-1.22.91,3.57,3.57,0,0,1,1.85,1.41,4.23,4.23,0,0,1,.62,2.35,4.67,4.67,0,0,1-.71,2.55,4.45,4.45,0,0,1-2.94,2.06,11.35,11.35,0,0,1-2.26.21h-7.2v-16h7.73C266.37,131.58,267.75,132.15,268.56,133.25Zm-8.68,1.08v3.52h3.88a3.23,3.23,0,0,0,1.69-.39,1.5,1.5,0,0,0,.65-1.41,1.43,1.43,0,0,0-.85-1.47,6,6,0,0,0-1.89-.25Zm0,6.17v4.27h3.88a3.76,3.76,0,0,0,1.62-.29,2,2,0,0,0,1.05-2,1.73,1.73,0,0,0-1-1.72,4.16,4.16,0,0,0-1.6-.27Z"/></g><path d="M486,185.83H394.31V94.17H486Zm-88.89-2.77h86.11V96.94H397.08Z"/><g class="cls-1"><path d="M435.11,133.22a6.56,6.56,0,0,1,4.91-2c2.67,0,4.61.88,5.84,2.64a5.79,5.79,0,0,1,1.1,3h-3.34a4.7,4.7,0,0,0-.82-1.74,3.32,3.32,0,0,0-2.65-1,3.27,3.27,0,0,0-2.82,1.47,7.24,7.24,0,0,0-1,4.16,6.31,6.31,0,0,0,1.09,4,3.4,3.4,0,0,0,2.77,1.34,3.13,3.13,0,0,0,2.62-1.15,5.09,5.09,0,0,0,.83-1.85h3.32a7.21,7.21,0,0,1-2.2,4.25,6.39,6.39,0,0,1-4.52,1.64,6.78,6.78,0,0,1-5.37-2.22,10.5,10.5,0,0,1,.27-12.55Z"/></g><rect x="684.58" y="83.06" width="36.47" height="2.78"/><polygon points="719.43 89.98 729.03 84.44 719.43 78.9 719.43 89.98"/><path d="M663.75,130.28H572.08V38.61h91.67Zm-88.89-2.78H661V41.39H574.86Z"/><g class="cls-1"><path d="M620.73,76.34a5.29,5.29,0,0,1,2.72,2A7.09,7.09,0,0,1,624.59,81a12,12,0,0,1,.31,2.65,10.63,10.63,0,0,1-1.28,5.4,5.79,5.79,0,0,1-5.37,3h-6.89V76h6.89A8.54,8.54,0,0,1,620.73,76.34Zm-6.13,2.43V89.21h3.09a3.33,3.33,0,0,0,3.3-2.33,8.25,8.25,0,0,0,.51-3,7.51,7.51,0,0,0-.76-3.75c-.51-.87-1.53-1.31-3-1.31Z"/></g><path d="M840.7,130.28H749V38.61H840.7Zm-88.89-2.78h86.11V41.39H751.81Z"/><g class="cls-1"><path d="M789.54,76H801v2.81h-8.09V82.5H800v2.78h-7.09V92h-3.32Z"/></g><path d="M663.75,241.39H572.08V149.72h91.67Zm-88.89-2.78H661V152.5H574.86Z"/><g class="cls-1"><path d="M623.8,189.94h-8.47v3.39h7.77v2.78h-7.77v4.11h8.86v2.88H612.07v-16H623.8Z"/></g><rect class="cls-2" x="555.06" y="194.17" width="125.71" height="2.78" transform="translate(42.7 494.21) rotate(-45)"/><rect class="cls-2" x="616.53" y="132.7" width="2.78" height="125.71" transform="translate(42.7 494.21) rotate(-45)"/></svg>