<svg id="Ebene_1" data-name="Ebene 1" xmlns="http://www.w3.org/2000/svg" viewBox="0 0 1000 500"><defs><style>.cls-1{fill:#b40000;}.cls-2{isolation:isolate;}.cls-3{fill:#0000be;}.cls-4{fill:#ff9600;}.cls-5{fill:#005a05;}.cls-6{fill:#208fe9;}.cls-7{fill:#f1f1f1;}.cls-8{fill:#bddef3;}.cls-9{fill:#b3dcf3;}.cls-10{fill:#a2daf3;}.cls-11{fill:#a9dbf3;}.cls-12{fill:#b9ddf3;}.cls-13{fill:#9bd9f3;}.cls-14{fill:#a8dbf3;}.cls-15{fill:#9edaf3;}.cls-16{fill:#baddf3;}.cls-17{fill:#b4dcf3;}.cls-18{fill:#aedcf3;}.cls-19{fill:#9ad9f3;}.cls-20{fill:#afdcf3;}.cls-21{fill:#bcddf3;}.cls-22{fill:#bedef3;}</style></defs><title>AH_Grafiken_</title><path class="cls-1" d="M923.64,129H832V37.35h91.67Zm-88.89-2.78h86.11V40.13H834.75Z"/><g class="cls-2"><path class="cls-1" d="M883.17,76.44a4.06,4.06,0,0,1,.74,2.44,3.57,3.57,0,0,1-.74,2.35,3.92,3.92,0,0,1-1.22.91,3.58,3.58,0,0,1,1.84,1.41,4.23,4.23,0,0,1,.63,2.35,4.71,4.71,0,0,1-.71,2.55,4.43,4.43,0,0,1-2.94,2.06,11.47,11.47,0,0,1-2.26.22H871.3v-16H879Q882,74.78,883.17,76.44Zm-8.68,1.07V81h3.89a3.28,3.28,0,0,0,1.69-.4,1.51,1.51,0,0,0,.65-1.4,1.44,1.44,0,0,0-.86-1.48,6,6,0,0,0-1.89-.25Zm0,6.17V88h3.88a3.86,3.86,0,0,0,1.62-.28,2,2,0,0,0,1-2A1.71,1.71,0,0,0,880,84a3.94,3.94,0,0,0-1.59-.28Z"/></g><path class="cls-3" d="M923.64,240.13H832V148.46h91.67Zm-88.89-2.78h86.11V151.24H834.75Z"/><g class="cls-2"><path class="cls-3" d="M872.77,187.51a6.62,6.62,0,0,1,4.92-2q4,0,5.84,2.65a5.74,5.74,0,0,1,1.09,3h-3.34a4.36,4.36,0,0,0-.82-1.73,3.62,3.62,0,0,0-5.46.42,7.18,7.18,0,0,0-1,4.17,6.29,6.29,0,0,0,1.09,4,3.4,3.4,0,0,0,2.76,1.34,3.14,3.14,0,0,0,2.62-1.15,5,5,0,0,0,.83-1.86h3.32a7.25,7.25,0,0,1-2.19,4.25,6.37,6.37,0,0,1-4.53,1.64,6.83,6.83,0,0,1-5.37-2.21,10.51,10.51,0,0,1,.27-12.56Z"/></g><path class="cls-4" d="M923.64,351.54H832V259.87h91.67Zm-88.89-2.78h86.11V262.65H834.75Z"/><g class="cls-2"><path class="cls-4" d="M880.62,297.6a5.29,5.29,0,0,1,2.72,2,7.09,7.09,0,0,1,1.14,2.58,12.63,12.63,0,0,1,.31,2.65,10.53,10.53,0,0,1-1.29,5.4,5.77,5.77,0,0,1-5.36,3h-6.9v-16h6.9A8.9,8.9,0,0,1,880.62,297.6ZM874.49,300v10.44h3.09a3.34,3.34,0,0,0,3.3-2.33,8.25,8.25,0,0,0,.51-3.05,7.5,7.5,0,0,0-.77-3.75c-.51-.87-1.52-1.31-3-1.31Z"/></g><path class="cls-5" d="M923.64,462.65H832V371h91.67Zm-88.89-2.78h86.11V373.76H834.75Z"/><g class="cls-2"><path class="cls-5" d="M883.68,411.2h-8.46v3.39H883v2.78h-7.77v4.11h8.86v2.88H872v-16h11.72Z"/></g><rect class="cls-1" x="305.54" y="204.17" width="75.35" height="2.78"/><polygon class="cls-1" points="379.27 211.1 388.86 205.56 379.27 200.01 379.27 211.1"/><rect class="cls-1" x="188.86" y="204.17" width="83.33" height="2.78"/><rect class="cls-5" x="305.54" y="293.06" width="75.35" height="2.78"/><polygon class="cls-5" points="379.27 299.99 388.86 294.44 379.27 288.9 379.27 299.99"/><rect class="cls-5" x="188.86" y="293.06" width="83.33" height="2.78"/><rect class="cls-3" x="305.54" y="233.8" width="75.35" height="2.78"/><polygon class="cls-3" points="379.27 240.73 388.86 235.19 379.27 229.65 379.27 240.73"/><rect class="cls-3" x="188.86" y="233.8" width="83.33" height="2.78"/><rect class="cls-4" x="305.54" y="263.43" width="75.35" height="2.78"/><polygon class="cls-4" points="379.27 270.36 388.86 264.81 379.27 259.27 379.27 270.36"/><rect class="cls-4" x="188.86" y="263.43" width="83.33" height="2.78"/><rect class="cls-1" x="714.41" y="116.72" width="100.41" height="2.78" transform="translate(82.21 482.68) rotate(-36.89)"/><polygon class="cls-1" points="806.79 93.37 811.14 83.18 800.14 84.51 806.79 93.37"/><rect class="cls-5" x="763.55" y="332.34" width="2.78" height="99.59" transform="translate(0.09 764.44) rotate(-53.1)"/><polygon class="cls-5" points="800.14 415.49 811.14 416.82 806.79 406.63 800.14 415.49"/><rect class="cls-3" x="728.67" y="204.07" width="75.87" height="2.78" transform="translate(-26.95 192.74) rotate(-14.09)"/><polygon class="cls-3" points="803.18 202 811.14 194.29 800.48 191.25 803.18 202"/><rect class="cls-4" x="765.22" y="256.6" width="2.78" height="75.87" transform="translate(294.46 966.49) rotate(-75.92)"/><polygon class="cls-4" points="800.48 308.75 811.14 305.71 803.18 298 800.48 308.75"/><path d="M168,295.83H76.36V204.17H168Zm-88.89-2.77h86.11V206.94H79.14Z"/><g class="cls-2"><path d="M120.62,241.55h3.78l5.66,16h-3.63l-1.05-3.28h-5.89l-1.09,3.28h-3.49Zm-.22,9.95h4.09l-2-6.29Z"/></g><rect class="cls-6" x="411.08" y="161.11" width="177.78" height="177.78"/><g class="cls-2"><path class="cls-1" d="M293.62,202a6.82,6.82,0,0,1,1.32,4.34,7.56,7.56,0,0,1-1.31,4.57,4.74,4.74,0,0,1-6,1.22,4.66,4.66,0,0,1-1.15-1.21v1.48h-3v-16h3.09v5.69a4.54,4.54,0,0,1,1.3-1.26,3.88,3.88,0,0,1,2.14-.54A4.43,4.43,0,0,1,293.62,202Zm-2.59,7.2a4.34,4.34,0,0,0,.67-2.54,5.63,5.63,0,0,0-.33-2.08,2.29,2.29,0,0,0-2.3-1.56,2.33,2.33,0,0,0-2.33,1.53,5.64,5.64,0,0,0-.33,2.1,4.4,4.4,0,0,0,.68,2.52,2.33,2.33,0,0,0,2.07,1A2.13,2.13,0,0,0,291,209.22Z"/></g><g class="cls-2"><path class="cls-5" d="M291.83,289a4.79,4.79,0,0,1,2.05,1.75,5.9,5.9,0,0,1,.94,2.44,15.07,15.07,0,0,1,.1,2.35h-8.61a2.84,2.84,0,0,0,1.23,2.5,3.22,3.22,0,0,0,1.71.44,2.64,2.64,0,0,0,1.72-.54,2.58,2.58,0,0,0,.63-.82h3.16a3.83,3.83,0,0,1-1.15,2.14,5.75,5.75,0,0,1-4.45,1.73A6.44,6.44,0,0,1,285,299.5q-1.81-1.46-1.81-4.73a6.46,6.46,0,0,1,1.63-4.72,5.73,5.73,0,0,1,4.23-1.64A6.7,6.7,0,0,1,291.83,289Zm-4.62,2.67a3.18,3.18,0,0,0-.83,1.83h5.33a2.62,2.62,0,0,0-.82-1.87,2.77,2.77,0,0,0-1.84-.64A2.44,2.44,0,0,0,287.21,291.64Z"/></g><g class="cls-2"><path class="cls-3" d="M291.2,233.53a2.77,2.77,0,0,0-.45-1.2,1.87,1.87,0,0,0-1.62-.71,2.12,2.12,0,0,0-2.14,1.55,6.53,6.53,0,0,0-.3,2.18,6,6,0,0,0,.3,2.09,2.07,2.07,0,0,0,2.09,1.48,1.84,1.84,0,0,0,1.54-.59,2.88,2.88,0,0,0,.56-1.52h3.16a5.24,5.24,0,0,1-1,2.67,4.94,4.94,0,0,1-4.31,2,5,5,0,0,1-4.2-1.69,6.83,6.83,0,0,1-1.35-4.39,7,7,0,0,1,1.49-4.74,5.21,5.21,0,0,1,4.11-1.69,6.14,6.14,0,0,1,3.64,1,4.69,4.69,0,0,1,1.68,3.53Z"/></g><g class="cls-2"><path class="cls-4" d="M289.79,261.14a3.71,3.71,0,0,1,1.36,1.31v-5.64h3.13v16h-3v-1.64a4.51,4.51,0,0,1-1.51,1.53,4.25,4.25,0,0,1-2.11.48,4.41,4.41,0,0,1-3.49-1.68,6.45,6.45,0,0,1-1.41-4.3,7.42,7.42,0,0,1,1.39-4.77,4.55,4.55,0,0,1,3.73-1.73A3.86,3.86,0,0,1,289.79,261.14Zm.76,8.43a4.39,4.39,0,0,0,.68-2.53,3.9,3.9,0,0,0-1.09-3.11,2.4,2.4,0,0,0-1.57-.56,2.17,2.17,0,0,0-2,1,4.76,4.76,0,0,0-.63,2.54,4.71,4.71,0,0,0,.64,2.62,2.2,2.2,0,0,0,2,1A2.29,2.29,0,0,0,290.55,269.57Z"/></g><g class="cls-2"><path class="cls-1" d="M715.89,153.42a6.77,6.77,0,0,1,1.33,4.34,7.63,7.63,0,0,1-1.31,4.57,4.74,4.74,0,0,1-6,1.22,4.67,4.67,0,0,1-1.16-1.21v1.49h-3v-16h3.09v5.69a4.42,4.42,0,0,1,1.3-1.26,3.88,3.88,0,0,1,2.14-.54A4.41,4.41,0,0,1,715.89,153.42Zm-2.58,7.21a4.43,4.43,0,0,0,.67-2.54,5.69,5.69,0,0,0-.33-2.09,2.29,2.29,0,0,0-2.3-1.56A2.32,2.32,0,0,0,709,156a5.66,5.66,0,0,0-.33,2.11,4.37,4.37,0,0,0,.68,2.51,2.32,2.32,0,0,0,2.07,1A2.16,2.16,0,0,0,713.31,160.63Z"/></g><g class="cls-2"><path class="cls-5" d="M714.11,336.83a4.9,4.9,0,0,1,2,1.75,5.73,5.73,0,0,1,.94,2.45,14.69,14.69,0,0,1,.11,2.35h-8.62a2.84,2.84,0,0,0,1.24,2.49,3.1,3.1,0,0,0,1.7.45,2.44,2.44,0,0,0,2.36-1.36H717a4,4,0,0,1-1.15,2.14,5.74,5.74,0,0,1-4.45,1.72,6.46,6.46,0,0,1-4.17-1.45q-1.8-1.46-1.8-4.74a6.37,6.37,0,0,1,1.63-4.71,5.7,5.7,0,0,1,4.23-1.64A6.73,6.73,0,0,1,714.11,336.83Zm-4.63,2.68a3.24,3.24,0,0,0-.82,1.83H714a2.57,2.57,0,0,0-.83-1.87,2.67,2.67,0,0,0-1.83-.64A2.42,2.42,0,0,0,709.48,339.51Z"/></g><g class="cls-2"><path class="cls-3" d="M713.48,216.24a2.73,2.73,0,0,0-.45-1.19,1.87,1.87,0,0,0-1.62-.72,2.13,2.13,0,0,0-2.14,1.55,6.28,6.28,0,0,0-.31,2.19,5.76,5.76,0,0,0,.31,2.09,2.06,2.06,0,0,0,2.09,1.47,1.85,1.85,0,0,0,1.54-.58,2.91,2.91,0,0,0,.55-1.52h3.16a5.14,5.14,0,0,1-1,2.67,5,5,0,0,1-4.31,2,5,5,0,0,1-4.2-1.69,8.05,8.05,0,0,1,.14-9.13,5.17,5.17,0,0,1,4.1-1.69,6.17,6.17,0,0,1,3.65,1,4.63,4.63,0,0,1,1.67,3.52Z"/></g><g class="cls-2"><path class="cls-4" d="M712.07,275.67a3.84,3.84,0,0,1,1.35,1.31v-5.64h3.14v16h-3v-1.64A4.34,4.34,0,0,1,712,287.2a4.18,4.18,0,0,1-2.1.48,4.39,4.39,0,0,1-3.49-1.68,6.46,6.46,0,0,1-1.42-4.3,7.38,7.38,0,0,1,1.4-4.76,4.53,4.53,0,0,1,3.73-1.74A3.89,3.89,0,0,1,712.07,275.67Zm.75,8.43a4.3,4.3,0,0,0,.69-2.53,3.87,3.87,0,0,0-1.1-3.1,2.35,2.35,0,0,0-1.56-.57,2.16,2.16,0,0,0-2,1,4.76,4.76,0,0,0-.64,2.54,4.7,4.7,0,0,0,.65,2.62,2.17,2.17,0,0,0,2,1A2.27,2.27,0,0,0,712.82,284.1Z"/></g><path class="cls-7" d="M499.38,290.42A50,50,0,0,1,487.64,289a1.68,1.68,0,0,0-1.33.2l-14.5,8.41a1.89,1.89,0,0,1-1.7.31,1.62,1.62,0,0,1-1.08-1.55c-.38-4.94-.78-9.88-1.15-14.83a1.24,1.24,0,0,0-.49-.93c-8.08-6.35-12.72-14.75-14.68-24.7a46.1,46.1,0,0,1-.64-14.21,40.73,40.73,0,0,1,8.64-21A47.54,47.54,0,0,1,491,202.81a50.09,50.09,0,0,1,36.26,7.05c8.7,5.48,15.09,13,18.44,22.73,4.53,13.19,2.78,25.7-5.09,37.18-7.21,10.53-17.42,16.75-29.82,19.52A51.1,51.1,0,0,1,499.38,290.42Z"/><path class="cls-8" d="M500.75,303.19c-1.43,0-2.85,0-4.27,0-.46,0-.63-.15-.6-.61,0-.64.08-1.29.06-1.94s.19-.7.7-.67a62.9,62.9,0,0,0,6.44,0,53.08,53.08,0,0,0,6-.61c.57-.09.88,0,.9.67a12.8,12.8,0,0,0,.29,1.84c.09.42,0,.57-.46.64A65.77,65.77,0,0,1,500.75,303.19Z"/><path class="cls-9" d="M556.88,266.9c0,.12-.11.28-.18.44a57.44,57.44,0,0,1-6.59,11.42c-.34.45-.57.5-1,.13a17.91,17.91,0,0,0-1.54-1.18c-.38-.25-.39-.45-.11-.82a49.57,49.57,0,0,0,4.68-7.45c.57-1.13,1.11-2.28,1.62-3.44.19-.43.38-.58.84-.36.62.3,1.28.53,1.93.81C556.71,266.52,556.93,266.58,556.88,266.9Z"/><path class="cls-10" d="M446.29,225l-1.5-.68c-1.38-.64-1.27-.37-.62-1.72a57.7,57.7,0,0,1,6.66-10.62c.42-.53.69-.56,1.15-.09a15.21,15.21,0,0,0,1.45,1.18c.29.23.34.42.09.73a53.11,53.11,0,0,0-6.76,10.81C446.6,224.91,446.55,224.93,446.29,225Z"/><path class="cls-10" d="M546.72,209.45c.2,0,.28.13.38.23a56.66,56.66,0,0,1,7.77,11.23c.18.35.12.53-.23.7-.61.29-1.21.59-1.8.92s-.68.17-.92-.3a52.3,52.3,0,0,0-6-8.94c-.41-.5-.84-1-1.26-1.48-.15-.18-.3-.34-.05-.57l1.9-1.69A.5.5,0,0,1,546.72,209.45Z"/><path class="cls-11" d="M440.86,243.64h-.15c-2-.11-1.94-.1-1.76-2a57.07,57.07,0,0,1,2.3-11.72c.19-.61.42-.73,1-.5a14.75,14.75,0,0,0,1.7.57c.47.13.56.35.41.82a47.6,47.6,0,0,0-1.91,8.59c-.14,1.06-.24,2.13-.34,3.2S442,243.68,440.86,243.64Z"/><path class="cls-12" d="M545.87,283.71c-.09.12-.17.24-.27.35a60,60,0,0,1-10.42,8.72c-.42.28-.59.16-.81-.2-.35-.58-.71-1.15-1.1-1.69-.27-.37-.24-.57.16-.82a56.57,56.57,0,0,0,8.66-7l1.21-1.23c.17-.18.33-.29.56-.07.61.59,1.24,1.16,1.86,1.74A2.07,2.07,0,0,1,545.87,283.71Z"/><path class="cls-8" d="M487.11,298.39l3.27.84c.3.08.26.31.2.54-.16.7-.34,1.4-.48,2.11-.08.37-.24.53-.62.42a1.74,1.74,0,0,1-.22-.05,4.57,4.57,0,0,0-4.18.39c-2.2,1.05-4.48,1.95-6.71,2.95-.49.21-.76.19-.95-.36a15.36,15.36,0,0,0-.74-1.72c-.2-.41-.19-.63.3-.84,3.12-1.33,6.22-2.69,9.34-4C486.57,298.54,486.84,298.48,487.11,298.39Z"/><path class="cls-13" d="M485.26,190.54c.29,0,.41.13.46.38.17.75.35,1.5.52,2.25.12.51-.28.49-.58.56a61.1,61.1,0,0,0-9.51,3.11c-.76.32-1.53.62-2.25,1-.54.29-.79.17-1-.37a10,10,0,0,0-.76-1.54c-.31-.52-.18-.76.35-1a64.86,64.86,0,0,1,11-3.95Z"/><path class="cls-14" d="M558.29,241.14c-.55.19-.7-.17-.75-.73a47.6,47.6,0,0,0-2.81-11.88c-.22-.58-.13-.84.46-1a11.93,11.93,0,0,0,1.54-.59c.56-.27.82-.14,1,.46a59.43,59.43,0,0,1,2.29,8.18c.3,1.54.52,3.09.73,4.64.06.48,0,.75-.59.76S559,241.08,558.29,241.14Z"/><path class="cls-15" d="M457.55,209.2c-.24,0-.34-.18-.46-.3-.48-.47-.93-1-1.44-1.42s-.31-.56,0-.88a58.79,58.79,0,0,1,6.19-5.29c1.4-1,2.86-2,4.32-2.95.45-.29.68-.24.92.23a13,13,0,0,0,1,1.59c.3.43.23.67-.22.94a56.49,56.49,0,0,0-8.41,6.34c-.52.47-1,.95-1.52,1.43C457.79,209,457.66,209.11,457.55,209.2Z"/><path class="cls-15" d="M531.05,196.85l.37.19a62.31,62.31,0,0,1,10.87,7.77c.35.3.37.51,0,.84-.48.47-.93,1-1.37,1.48-.28.34-.5.39-.85.07a55.77,55.77,0,0,0-10.32-7.39c-.39-.22-.48-.41-.23-.81.36-.59.68-1.22,1-1.83C530.67,197,530.76,196.8,531.05,196.85Z"/><path class="cls-16" d="M460.1,297.54c-.45.06-.43-.3-.5-.53-.76-2.32-1.52-4.64-2.23-7a3.07,3.07,0,0,0-1.18-1.73c-.73-.52-1.38-1.15-2.08-1.71-.28-.23-.36-.42-.07-.71.53-.54,1-1.09,1.51-1.66.26-.31.45-.25.73,0,1,.82,2,1.62,3,2.41a2.29,2.29,0,0,1,.77,1.16c.87,2.72,1.73,5.45,2.63,8.17.18.57.07.81-.5,1S460.76,297.33,460.1,297.54Z"/><path class="cls-13" d="M512,190a59.33,59.33,0,0,1,9.16,2.44c1.29.46,2.56,1,3.85,1.45.51.18.57.44.35.89a12.55,12.55,0,0,0-.72,1.64c-.19.57-.44.64-1,.41a58.48,58.48,0,0,0-11.35-3.51c-1.24-.26-1.24-.27-1-1.56.08-.47.18-.93.26-1.39C511.64,190.09,511.74,189.89,512,190Z"/><path class="cls-17" d="M445.1,268.26c.39,0,.37.33.45.55a39,39,0,0,0,5.09,9.28q.57.8,1.2,1.53c.24.28.21.45-.06.66-.55.44-1.1.87-1.61,1.35s-.62.31-.94-.09a43,43,0,0,1-4.66-7.12c-.75-1.46-1.4-3-2-4.49-.22-.54-.09-.74.43-.9C443.69,268.81,444.38,268.52,445.1,268.26Z"/><path class="cls-18" d="M561,248.78a53.93,53.93,0,0,1-1.85,11.71c-.15.53-.34.69-.87.5a17.46,17.46,0,0,0-1.87-.56c-.45-.1-.51-.31-.39-.74a48.46,48.46,0,0,0,1.83-12.38c0-.45.13-.69.64-.66.7,0,1.4,0,2.1,0,.4,0,.54.16.51.54S561,248.26,561,248.78Z"/><path class="cls-19" d="M500.21,188.9c1.49-.06,3.21.12,4.93.18.59,0,.84.24.71.88a10.52,10.52,0,0,0-.17,1.78c0,.51-.25.61-.71.57-1.07-.08-2.14-.11-3.21-.17a56,56,0,0,0-9.33.4c-.57.07-.75-.07-.78-.62a12.2,12.2,0,0,0-.24-1.7c-.1-.55,0-.81.66-.87A70.73,70.73,0,0,1,500.21,188.9Z"/><path class="cls-20" d="M440.71,249.2c1.32,0,1.3,0,1.36,1.28a65.4,65.4,0,0,0,1.54,11.83c.12.52,0,.72-.5.82a16.08,16.08,0,0,0-1.82.44c-.48.14-.7.05-.81-.48a66,66,0,0,1-1.27-7.88c-.16-1.69-.28-3.38-.35-5.07,0-.64.14-.93.81-.88A6,6,0,0,0,440.71,249.2Z"/><path class="cls-21" d="M516.34,301.14c-.16,0-.32-.07-.4-.38-.17-.73-.36-1.45-.56-2.17-.1-.37,0-.53.41-.62a59,59,0,0,0,12-4.6c.3-.15.49-.15.65.18.34.69.7,1.38,1.07,2.06.15.27.11.44-.18.59a64.11,64.11,0,0,1-12.77,4.89Z"/><path class="cls-22" d="M465.33,311.11a1.61,1.61,0,0,1-1.56-1.11c-.7-2.12-1.37-4.26-2.07-6.39-.13-.38,0-.54.36-.64.64-.2,1.29-.39,1.92-.62.47-.18.7-.09.85.43.37,1.29.83,2.55,1.2,3.84.17.59.39.67.94.42,1.21-.58,2.47-1.07,3.69-1.63.42-.19.66-.19.84.3.25.68.56,1.33.86,2,.11.23.14.42-.15.54L465.68,311A1.59,1.59,0,0,1,465.33,311.11Z"/><rect class="cls-1" x="600.28" y="199.41" width="108.38" height="2.78" transform="translate(10.52 433.12) rotate(-36.89)"/><rect class="cls-5" x="653.41" y="244.85" width="2.78" height="109.2" transform="translate(22.2 643.32) rotate(-53.1)"/><rect class="cls-3" x="609.88" y="232.86" width="83.85" height="2.78" transform="translate(-37.41 165.67) rotate(-14.09)"/><rect class="cls-4" x="650.23" y="223.97" width="2.78" height="83.47" transform="translate(235.4 833.13) rotate(-75.92)"/></svg>