<svg id="Ebene_1" data-name="Ebene 1" xmlns="http://www.w3.org/2000/svg" viewBox="0 0 1000 500"><defs><style>.cls-1{fill:#b40000;}.cls-2{isolation:isolate;}.cls-3{fill:#0000be;}.cls-4{fill:#ff9600;}.cls-5{fill:#005a05;}.cls-6{fill:#42c352;}.cls-7{fill:#fff;}.cls-8{fill:#fefefe;}</style></defs><title>AH_Grafiken_</title><path class="cls-1" d="M923.64,129H832V37.35h91.67Zm-88.89-2.78h86.11V40.13H834.75Z"/><g class="cls-2"><path class="cls-1" d="M883.17,76.44a4.06,4.06,0,0,1,.74,2.44,3.57,3.57,0,0,1-.74,2.35,3.92,3.92,0,0,1-1.22.91,3.58,3.58,0,0,1,1.84,1.41,4.23,4.23,0,0,1,.63,2.35,4.71,4.71,0,0,1-.71,2.55,4.43,4.43,0,0,1-2.94,2.06,11.47,11.47,0,0,1-2.26.22H871.3v-16H879Q882,74.78,883.17,76.44Zm-8.68,1.07V81h3.89a3.28,3.28,0,0,0,1.69-.4,1.51,1.51,0,0,0,.65-1.4,1.44,1.44,0,0,0-.86-1.48,6,6,0,0,0-1.89-.25Zm0,6.17V88h3.88a3.86,3.86,0,0,0,1.62-.28,2,2,0,0,0,1-2A1.71,1.71,0,0,0,880,84a3.94,3.94,0,0,0-1.59-.28Z"/></g><path class="cls-3" d="M923.64,240.13H832V148.46h91.67Zm-88.89-2.78h86.11V151.24H834.75Z"/><g class="cls-2"><path class="cls-3" d="M872.77,187.51a6.62,6.62,0,0,1,4.92-2q4,0,5.84,2.65a5.74,5.74,0,0,1,1.09,3h-3.34a4.36,4.36,0,0,0-.82-1.73,3.62,3.62,0,0,0-5.46.42,7.18,7.18,0,0,0-1,4.17,6.29,6.29,0,0,0,1.09,4,3.4,3.4,0,0,0,2.76,1.34,3.14,3.14,0,0,0,2.62-1.15,5,5,0,0,0,.83-1.86h3.32a7.25,7.25,0,0,1-2.19,4.25,6.37,6.37,0,0,1-4.53,1.64,6.83,6.83,0,0,1-5.37-2.21,10.51,10.51,0,0,1,.27-12.56Z"/></g><path class="cls-4" d="M923.64,351.54H832V259.87h91.67Zm-88.89-2.78h86.11V262.65H834.75Z"/><g class="cls-2"><path class="cls-4" d="M880.62,297.6a5.29,5.29,0,0,1,2.72,2,7.09,7.09,0,0,1,1.14,2.58,12,12,0,0,1,.31,2.65,10.53,10.53,0,0,1-1.29,5.4,5.77,5.77,0,0,1-5.36,3h-6.9v-16h6.9A8.9,8.9,0,0,1,880.62,297.6ZM874.49,300v10.44h3.09a3.34,3.34,0,0,0,3.3-2.33,8.25,8.25,0,0,0,.51-3.05,7.5,7.5,0,0,0-.77-3.75c-.51-.87-1.52-1.31-3-1.31Z"/></g><path class="cls-5" d="M923.64,462.65H832V371h91.67Zm-88.89-2.78h86.11V373.76H834.75Z"/><g class="cls-2"><path class="cls-5" d="M883.69,411.2h-8.47v3.39H883v2.78h-7.77v4.11h8.86v2.88H872v-16h11.73Z"/></g><rect x="305.53" y="248.61" width="75.36" height="2.78"/><polygon points="379.27 255.54 388.86 250 379.27 244.46 379.27 255.54"/><rect x="188.86" y="248.61" width="83.33" height="2.78"/><rect x="714.41" y="116.72" width="100.41" height="2.78" transform="translate(82.21 482.68) rotate(-36.89)"/><polygon points="806.79 93.37 811.14 83.18 800.14 84.51 806.79 93.37"/><rect x="600.28" y="199.41" width="108.38" height="2.78" transform="translate(10.52 433.12) rotate(-36.89)"/><rect x="763.55" y="332.34" width="2.78" height="99.59" transform="translate(0.09 764.44) rotate(-53.1)"/><polygon points="800.14 415.49 811.14 416.82 806.79 406.63 800.14 415.49"/><rect x="653.41" y="244.85" width="2.78" height="109.2" transform="translate(22.2 643.32) rotate(-53.1)"/><rect x="728.67" y="204.07" width="75.87" height="2.78" transform="translate(-26.95 192.74) rotate(-14.09)"/><polygon points="803.18 202 811.14 194.29 800.48 191.25 803.18 202"/><rect x="609.88" y="232.86" width="83.85" height="2.78" transform="translate(-37.41 165.67) rotate(-14.09)"/><rect x="765.22" y="256.6" width="2.78" height="75.87" transform="translate(294.46 966.49) rotate(-75.92)"/><polygon points="800.48 308.75 811.14 305.71 803.18 298 800.48 308.75"/><rect x="650.23" y="223.97" width="2.78" height="83.47" transform="translate(235.4 833.13) rotate(-75.92)"/><path d="M168,295.83H76.36V204.17H168Zm-88.89-2.77h86.11V206.94H79.14Z"/><g class="cls-2"><path d="M120.62,241.55h3.78l5.66,16h-3.63l-1.05-3.28h-5.89l-1.09,3.28h-3.49Zm-.22,9.95h4.09l-2-6.29Z"/></g><rect class="cls-6" x="411.08" y="161.11" width="177.78" height="177.78"/><g class="cls-2"><path d="M295.18,242.43a3.43,3.43,0,0,1,2.05,2.58,9.72,9.72,0,0,1,.11,1.75l0,7.45h-3.17v-7.53a2.41,2.41,0,0,0-.22-1.11,1.53,1.53,0,0,0-1.51-.82,1.76,1.76,0,0,0-1.77,1.06,3.3,3.3,0,0,0-.25,1.36v7h-3.12v-7a4.09,4.09,0,0,0-.21-1.53,1.52,1.52,0,0,0-1.53-.86,1.82,1.82,0,0,0-1.78.86,3.23,3.23,0,0,0-.25,1.45v7.12h-3.14V242.4h3v1.73a5,5,0,0,1,1.08-1.31,4.28,4.28,0,0,1,4.53-.1,3.53,3.53,0,0,1,1,1.42,3.94,3.94,0,0,1,1.5-1.53,4.7,4.7,0,0,1,2.13-.49A4,4,0,0,1,295.18,242.43Z"/></g><g class="cls-2"><path d="M717.46,152a3.5,3.5,0,0,1,1.38,1.07,3.43,3.43,0,0,1,.67,1.51,10.85,10.85,0,0,1,.11,1.75l0,7.46h-3.17V156.3a2.41,2.41,0,0,0-.22-1.11,1.54,1.54,0,0,0-1.52-.83,1.79,1.79,0,0,0-1.77,1.07,3.42,3.42,0,0,0-.25,1.35v7.05h-3.11v-7.05a3.86,3.86,0,0,0-.22-1.53,1.51,1.51,0,0,0-1.53-.85,1.83,1.83,0,0,0-1.78.85,3.42,3.42,0,0,0-.25,1.46v7.12h-3.13V152h3v1.73a5.07,5.07,0,0,1,1.09-1.32,3.73,3.73,0,0,1,2.33-.69,3.64,3.64,0,0,1,2.19.6,3.37,3.37,0,0,1,1,1.42,3.9,3.9,0,0,1,1.51-1.53,4.58,4.58,0,0,1,2.13-.49A4.18,4.18,0,0,1,717.46,152Z"/></g><g class="cls-2"><path d="M717.46,336.64a3.43,3.43,0,0,1,2,2.58,10.76,10.76,0,0,1,.11,1.75l0,7.45h-3.17v-7.53a2.41,2.41,0,0,0-.22-1.11,1.53,1.53,0,0,0-1.52-.82,1.78,1.78,0,0,0-1.77,1.06,3.48,3.48,0,0,0-.25,1.36v7h-3.11v-7a3.86,3.86,0,0,0-.22-1.53,1.52,1.52,0,0,0-1.53-.86,1.84,1.84,0,0,0-1.78.86,3.37,3.37,0,0,0-.25,1.45v7.12h-3.13v-11.8h3v1.72a5.17,5.17,0,0,1,1.09-1.31,3.73,3.73,0,0,1,2.33-.7,3.64,3.64,0,0,1,2.19.6,3.44,3.44,0,0,1,1,1.42,4,4,0,0,1,1.51-1.53,4.7,4.7,0,0,1,2.13-.49A4.19,4.19,0,0,1,717.46,336.64Z"/></g><g class="cls-2"><path d="M717.46,212a3.6,3.6,0,0,1,1.38,1.07,3.42,3.42,0,0,1,.67,1.52,10.62,10.62,0,0,1,.11,1.74l0,7.46h-3.17V216.3a2.41,2.41,0,0,0-.22-1.11,1.54,1.54,0,0,0-1.52-.83,1.79,1.79,0,0,0-1.77,1.07,3.42,3.42,0,0,0-.25,1.35v7.05h-3.11v-7.05a3.86,3.86,0,0,0-.22-1.53,1.51,1.51,0,0,0-1.53-.85,1.83,1.83,0,0,0-1.78.85,3.42,3.42,0,0,0-.25,1.46v7.12h-3.13V212h3v1.73a5.07,5.07,0,0,1,1.09-1.32,3.73,3.73,0,0,1,2.33-.69,3.64,3.64,0,0,1,2.19.6,3.37,3.37,0,0,1,1,1.42,3.9,3.9,0,0,1,1.51-1.53,4.58,4.58,0,0,1,2.13-.49A4.18,4.18,0,0,1,717.46,212Z"/></g><g class="cls-2"><path d="M717.46,275.53a3.43,3.43,0,0,1,2,2.58,10.76,10.76,0,0,1,.11,1.75l0,7.45h-3.17v-7.53a2.41,2.41,0,0,0-.22-1.11,1.53,1.53,0,0,0-1.52-.82,1.78,1.78,0,0,0-1.77,1.06,3.48,3.48,0,0,0-.25,1.36v7h-3.11v-7a3.86,3.86,0,0,0-.22-1.53,1.52,1.52,0,0,0-1.53-.86,1.84,1.84,0,0,0-1.78.86,3.37,3.37,0,0,0-.25,1.45v7.12h-3.13V275.5h3v1.73a5,5,0,0,1,1.09-1.31,4.26,4.26,0,0,1,4.52-.1,3.44,3.44,0,0,1,1,1.42,4,4,0,0,1,1.51-1.53,4.58,4.58,0,0,1,2.13-.49A4,4,0,0,1,717.46,275.53Z"/></g><path class="cls-7" d="M503,186.11a60.9,60.9,0,0,0-53.08,90.74l-8.25,31.48,31.48-8.24a60.6,60.6,0,0,0,29.85,7.8h0a60.89,60.89,0,0,0,0-121.78Z"/><path class="cls-6" d="M503,197.08a49.93,49.93,0,1,1,0,99.85h0a50.11,50.11,0,0,1-12.87-1.68,49.51,49.51,0,0,1-11.6-4.72l-3.86-2.18-4.3,1.13L457,293l3.5-13.34,1.12-4.29-2.18-3.87a49.51,49.51,0,0,1-4.72-11.6A49.9,49.9,0,0,1,503,197.08"/><path class="cls-8" d="M480.06,251.23c-1.22-1.61-2.37-3.26-3.42-5a32.41,32.41,0,0,1-3.59-8,18.49,18.49,0,0,1,.92-12.47,15.82,15.82,0,0,1,3.76-5.25c2.19-2,4.32-1.87,7.17-1.78,2.56.09,3.78,3.24,4.51,5.24,1.07,2.92,2.08,5.81,3.28,8.69,1.27,3.08-1.86,6.06-3.79,8.05a1.92,1.92,0,0,0-.35,2.71,38.61,38.61,0,0,0,2.9,4.38,39.73,39.73,0,0,0,10.37,9.74,40.8,40.8,0,0,0,6.4,3.39c2.34,1,3.5.57,5-1.47,1.22-1.61,2.23-2.61,3.46-4.22a2.65,2.65,0,0,1,3-1.07c4.38,1.43,8.31,3.84,12.45,5.81a2.36,2.36,0,0,1,1.66,2.26,17.54,17.54,0,0,1-1,6,10.17,10.17,0,0,1-2.68,3.54,16.38,16.38,0,0,1-13.53,3.77,57.69,57.69,0,0,1-10.52-3C495,268.6,487,260.43,480.06,251.23Z"/></svg>